<?xml version="1.0" encoding="iso-8859-1"?>
<!-- Generator: Adobe Illustrator 19.0.0, SVG Export Plug-In . SVG Version: 6.00 Build 0)  -->
<svg version="1.1" id="Capa_1" xmlns="http://www.w3.org/2000/svg" xmlns:xlink="http://www.w3.org/1999/xlink" x="0px" y="0px"
	 viewBox="0 0 512 512" fill="#fff" style="enable-background:new 0 0 512 512;" xml:space="preserve">
<g>
	<g>
		<path d="M121.806,286.579c-4.142,0-7.5,3.359-7.5,7.5v13.843c0,4.142,3.358,7.5,7.5,7.5c4.142,0,7.5-3.358,7.5-7.5v-13.843
			C129.306,289.937,125.948,286.579,121.806,286.579z"/>
	</g>
</g>
<g>
	<g>
		<path d="M274.773,286.579c-4.142,0-7.5,3.358-7.5,7.5v13.843c0,4.141,3.358,7.5,7.5,7.5c4.142,0,7.5-3.358,7.5-7.5v-13.843
			C282.273,289.937,278.915,286.579,274.773,286.579z"/>
	</g>
</g>
<g>
	<g>
		<path d="M226.419,302.243c-3.118-2.726-7.857-2.408-10.583,0.711c-4.276,4.892-10.671,7.697-17.546,7.697
			s-13.271-2.806-17.547-7.697c-2.726-3.119-7.464-3.437-10.583-0.711c-3.119,2.726-3.437,7.464-0.711,10.583
			c7.125,8.151,17.637,12.825,28.841,12.825c11.204,0,21.715-4.675,28.84-12.825C229.856,309.707,229.538,304.97,226.419,302.243z"
			/>
	</g>
</g>
<g>
	<g>
		<path d="M452.366,180.843l-30.868-30.868V7.5c0-2.146-0.919-4.19-2.526-5.613C416.859,0.015,414.212,0,411.547,0H173.95
			c-4.142,0-7.5,3.358-7.5,7.5s3.358,7.5,7.5,7.5h214.257l-24.182,17.331c-15.88,11.38-25.36,29.838-25.36,49.375v11.269
			c0,0-5.41-6.336-5.412-6.338c-7.512-8.798-21.536-8.791-29.043,0l-9.797,11.474c-1.603,1.879-4.621,1.879-6.229,0
			c0,0-9.789-11.464-9.797-11.474c-7.513-8.799-21.537-8.79-29.043,0l-9.797,11.474c-1.6,1.875-4.623,1.883-6.229,0
			c0,0-9.793-11.47-9.797-11.474c-7.511-8.797-21.541-8.786-29.043,0l-9.797,11.474c-1.601,1.877-4.619,1.88-6.228,0
			c0,0-9.794-11.47-9.797-11.474c-7.512-8.797-21.538-8.789-29.043,0c0,0-9.78,11.453-9.798,11.474
			c-1.614,1.89-4.614,1.892-6.228-0.001l-9.797-11.474c-3.776-4.426-9.552-6.886-15.353-6.673c-0.027,0.001-0.053,0.001-0.08,0.002
			c-5.256,0.25-10.175,2.647-13.611,6.671l-5.411,6.337V46.962C79.334,29.338,93.672,15,111.296,15h32.654
			c4.142,0,7.5-3.358,7.5-7.5s-3.358-7.5-7.5-7.5h-32.654C85.401,0,64.334,21.067,64.334,46.962c0,0,0,60.481,0,60.639
			c0,8.721,11.23,12.887,16.909,6.237l9.26-10.844v22.372c-0.001,15.869-6.181,30.789-17.402,42.011l-13.467,13.467
			c-16.519,16.519-25.617,38.482-25.617,61.844v209.134c0,33.182,26.996,60.178,60.178,60.178H421.81
			c30.974,0,56.173-25.199,56.173-56.173v-213.14C477.983,219.326,468.885,197.362,452.366,180.843z M462.982,455.828
			c0,22.703-18.47,41.173-41.173,41.173h-59.247v-57.542c0-3.968-3.34-7.386-7.308-7.49c-4.644-0.122-8.497,4.189-7.692,8.796V497
			H94.196c-24.911,0-45.178-20.267-45.178-45.178V242.688c0-19.354,7.537-37.551,21.223-51.237l13.467-13.467
			c14.055-14.055,21.795-32.741,21.795-52.618v-25.333l6.676,7.818c3.601,4.218,8.972,6.696,14.521,6.696
			c5.513,0,10.943-2.505,14.521-6.696c0,0,9.797-11.474,9.799-11.475c1.623-1.898,4.608-1.893,6.227,0.002l9.797,11.474
			c3.601,4.218,8.973,6.696,14.521,6.696c5.481,0,10.963-2.528,14.522-6.696c0,0,9.797-11.474,9.799-11.476
			c1.626-1.901,4.609-1.892,6.227,0.002c0,0,9.796,11.473,9.797,11.474c3.526,4.129,8.951,6.696,14.521,6.696
			c5.541,0,10.926-2.485,14.522-6.696c0,0,9.797-11.474,9.798-11.475c1.624-1.899,4.608-1.894,6.227,0.002l9.797,11.474
			c3.601,4.218,8.973,6.696,14.521,6.696c5.54,0,10.926-2.485,14.522-6.696c0,0,9.797-11.474,9.799-11.475
			c1.625-1.9,4.609-1.894,6.227,0.001c0,0,14.879,17.426,14.91,17.462c2.5,2.928,6.895,4.152,10.628,2.773
			c3.815-1.407,6.281-4.944,6.281-9.011V81.706c0-14.713,7.14-28.612,19.098-37.183l33.735-24.177v127.191
			c-0.086,0.078-0.171,0.159-0.253,0.242l-33.065,33.065c-16.519,16.519-25.617,38.482-25.617,61.844
			c0,0-0.112,166.32-0.112,166.776c0,4.199,3.792,7.698,7.991,7.487c3.631-0.183,6.718-3.09,7.084-6.729
			c0.025-0.249,0.038-167.534,0.038-167.534c0-19.354,7.537-37.551,21.223-51.237l28.987-28.986l28.987,28.986
			c13.686,13.686,21.223,31.883,21.223,51.237V455.828z"/>
	</g>
</g>
<g>
</g>
<g>
</g>
<g>
</g>
<g>
</g>
<g>
</g>
<g>
</g>
<g>
</g>
<g>
</g>
<g>
</g>
<g>
</g>
<g>
</g>
<g>
</g>
<g>
</g>
<g>
</g>
<g>
</g>
</svg>
