<svg height="511pt" viewBox="-80 0 511 511.99913" fill="#fff" width="511pt" xmlns="http://www.w3.org/2000/svg"><path d="m351.996094 101.308594c0-5.523438-4.476563-10-10-10h-19.933594c-1.136719-2.359375-2.863281-4.476563-5.15625-6.089844l-63.457031-44.652344c-4.605469-3.246094-10.640625-3.792968-15.75-1.425781-5.113281 2.367187-8.605469 7.324219-9.105469 12.933594l-3.527344 39.234375h-95.992187l-27.4375-47.53125c-2.820313-4.867188-8.066407-7.894532-13.691407-7.894532 0 0 0 0-.003906 0-5.625 0-10.871094 3.023438-13.695312 7.90625l-27.433594 47.519532h-36.3125c-5.523438 0-10 4.476562-10 10v37.277344.03125c0 .355468.023438.707031.0625 1.054687.007812.078125.023438.160156.035156.238281.035156.285156.082032.566406.144532.839844.003906.027344.003906.054688.011718.078125.1875.824219 16.894532 73.992187 20.550782 137.875.742187 12.945313.886718 25.902344.351562 38.863281-.148438 3.609375-.347656 7.214844-.582031 10.820313-4.070313 62.910156-20.132813 133.285156-20.320313 134.089843-.007812.027344-.007812.054688-.011718.078126-.0625.277343-.109376.558593-.144532.84375-.011718.078124-.027344.15625-.035156.238281-.039062.347656-.0625.699219-.0625 1.054687v.027344.003906 37.277344c0 5.519531 4.476562 10 10 10h331.496094c5.523437 0 10-4.480469 10-10v-37.277344c0-.371094-.023438-.734375-.0625-1.09375-.003906-.066406-.019532-.132812-.027344-.199218-.039062-.296876-.089844-.589844-.152344-.878907-.003906-.023437-.007812-.046875-.011718-.074219-.199219-.859374-18.535157-81.191406-20.980469-146.945312-.296875-8.03125-.347657-16.0625-.121094-24.097656 1.875-66.390625 20.898437-149.726563 21.101563-150.605469.003906-.023437.007812-.050781.011718-.078125.0625-.273438.109375-.554688.144532-.839844.011718-.078125.027343-.160156.035156-.238281.039062-.347656.058594-.699219.0625-1.054687 0-.011719 0-.019532 0-.03125zm-228.691406 10.003906c.007812 0 .019531-.003906.027343-.003906h44.195313v17.277344h-69.585938v-17.273438zm110.867187-.003906c.015625 0 .027344.003906.039063.003906h22.902343v17.273438h-69.585937v-17.277344zm95.414063 37.277344c-2.894532 13.808593-7.621094 37.867187-11.648438 65.425781h-27.925781c-5.523438 0-10 4.476562-10 10 0 5.523437 4.476562 10 10 10h25.226562c-2.226562 18.054687-3.945312 36.855469-4.53125 54.746093-.300781 9.171876-.277343 18.351563.0625 27.523438.589844 16.109375 2.078125 32.910156 4.007813 49.203125h-277.0625c2.527344-21.308594 4.292968-43.492187 4.292968-63.871094 0-21.566406-1.980468-45.160156-4.75-67.601562h172.644532c5.523437 0 10-4.476563 10-10 0-5.523438-4.476563-10-10-10h-175.34375c-4.023438-27.558594-8.753906-51.617188-11.648438-65.425781zm-294.480469 236.898437h282.28125c4.140625 29.140625 9.171875 54.796875 12.199219 69.238281h-306.675782c3.027344-14.441406 8.058594-40.089844 12.195313-69.238281zm132.421875 89.238281v17.277344h-69.585938v-17.277344zm20 0h69.585937v17.277344h-69.585937zm144.46875-346.136718h-54.882813v-17.273438h35.589844c.007813 0 .019531-.003906.03125-.003906h19.261719zm-84.132813-67.496094 42.945313 30.21875h-45.660156zm-159.921875-1.027344 18.039063 31.246094h-36.078125zm-67.441406 51.246094h32.054688c.007812 0 .019531.003906.027343.003906h25.359375v17.273438h-57.441406zm0 363.414062h57.441406v17.277344h-57.441406zm256.613281 17.277344v-17.273438h54.882813v17.273438zm0 0"/><path d="m141.351562 61.230469 46.988282 19.714843c1.960937.824219 4.035156 1.230469 6.105468 1.230469 3.40625 0 6.792969-1.097656 9.582032-3.21875 4.484375-3.410156 6.832031-9 6.121094-14.585937l-6.417969-50.550782c-.710938-5.589843-4.375-10.414062-9.570313-12.59375-5.191406-2.179687-11.207031-1.417968-15.691406 1.992188l-40.570312 30.832031c-4.484376 3.410157-6.828126 9-6.117188 14.585938.707031 5.589843 4.375 10.414062 9.570312 12.59375zm43.453126-37.703125 4.589843 36.171875-33.625-14.109375zm0 0"/><path d="m177.527344 245.609375c-51.570313 0-91.96875 24.289063-91.96875 55.292969 0 31.007812 40.398437 55.296875 91.96875 55.296875 51.574218 0 91.96875-24.289063 91.96875-55.296875 0-31.003906-40.398438-55.292969-91.96875-55.292969zm0 90.589844c-42.410156 0-71.96875-18.601563-71.96875-35.296875 0-20.796875 37.929687-35.292969 71.96875-35.292969 42.414062 0 71.96875 18.601563 71.96875 35.292969 0 20.800781-37.929688 35.296875-71.96875 35.296875zm0 0"/><path d="m240.320312 227.832031c1.601563 3.847657 5.539063 6.382813 9.71875 6.167969 4.117188-.214844 7.769532-3.007812 9.03125-6.929688 1.28125-3.980468-.117187-8.445312-3.433593-10.992187-3.359375-2.578125-8.113281-2.734375-11.636719-.386719-3.914062 2.609375-5.488281 7.800782-3.679688 12.140625zm0 0"/></svg>