<?xml version="1.0" encoding="iso-8859-1"?>
<!-- Generator: Adobe Illustrator 18.0.0, SVG Export Plug-In . SVG Version: 6.00 Build 0)  -->
<!DOCTYPE svg PUBLIC "-//W3C//DTD SVG 1.1//EN" "http://www.w3.org/Graphics/SVG/1.1/DTD/svg11.dtd">
<svg version="1.1" id="Capa_1" xmlns="http://www.w3.org/2000/svg" xmlns:xlink="http://www.w3.org/1999/xlink" x="0px" y="0px"
	 viewBox="0 0 384.666 384.666" fill="#fff" style="enable-background:new 0 0 384.666 384.666;" xml:space="preserve">
<g>
	<path d="M379.647,286.342c0.014,0,0.028,0,0.042,0c2.752-0.012,4.978-2.246,4.978-5c0-0.635-0.118-1.243-0.334-1.802
		l-57.19-200.533c-5.65-19.813-22.444-34.328-42.855-36.988l-0.264-0.034c-11.702-1.486-23.618-2.24-35.418-2.24
		c-21.171,0-42.472,2.412-63.312,7.168C111.593,63.732,48.816,108.219,8.49,172.196c-0.212,0.291-0.396,0.608-0.545,0.95
		c-1.005,2.3-0.148,4.989,2.002,6.284l0.01,0.006c0.44,0.266,0.906,0.455,1.381,0.572l9.56,2.765
		c0.649,2.856,1.657,7.745,2.428,13.564L2.423,222.185c-2.288,2.803-3.011,6.538-1.932,9.991s3.799,6.113,7.275,7.114
		l366.079,105.436c0.456,0.131,0.921,0.195,1.384,0.195c1.253,0,2.481-0.472,3.42-1.353c1.286-1.206,1.842-2.999,1.464-4.72
		l-12.24-55.708l10.383,3.003C378.715,286.277,379.183,286.342,379.647,286.342z M57.743,221.639
		c1.855,0.484,3.658,0.704,5.407,0.704c13.389,0,23.482-12.912,27.679-19.341l28.458,8.232l6.4,15.48
		c0.797,1.927,2.66,3.091,4.623,3.091c0.637,0,1.283-0.123,1.908-0.381c2.552-1.055,3.766-3.979,2.711-6.531l-3.351-8.105
		l20.48,5.924c5.708,4.942,6.392,7.461,6.407,8.333c0.025,1.508-2.109,3.626-4.2,5.499c-7.488,6.706-7.824,12.807-6.787,16.745
		c0.16,0.608,0.378,1.196,0.621,1.776l-24.369-6.992c-3.677-15.618-14.123-26.267-26.164-26.267
		c-7.984,0-15.475,4.729-20.629,12.841L33.972,220.32c0.501-4.831,0.53-9.803,0.281-14.577c7.329-0.497,19.897-2.685,26.268-11.508
		l20.154,5.83c-4.277,5.818-12.032,14.083-20.408,11.898c-2.676-0.703-5.403,0.905-6.1,3.576
		C53.47,218.211,55.071,220.942,57.743,221.639z M208.55,250.978c0.983,1.293,2.475,1.974,3.983,1.974
		c1.055,0,2.118-0.333,3.022-1.021l12.24-9.309l14.872,4.302c-4.037,2.085-9.432,4.715-15.174,7.073
		c-20.365,8.361-26.497,5.828-27.893,4.854c-1.361-0.952-1.992-1.963-2.11-3.383c-0.446-5.388,6.15-14.094,10.6-18.545l7.737,2.238
		l-6.326,4.811C207.305,245.643,206.878,248.78,208.55,250.978z M245.159,280.915l-38.6-11.075
		c16.999-0.957,42.403-14.716,49.811-18.952l10.052,2.908l-2.421,9.866c-1.249,5.095-4.605,9.461-9.207,11.98L245.159,280.915z
		 M187.524,256.277c0.304,3.714,1.933,6.941,4.718,9.455c0,0-32.083-9.228-35.094-16.99c-0.839-2.164,1.734-4.908,3.787-6.747
		c3.693-3.307,7.626-7.321,7.529-13.116c-0.02-1.2-0.218-2.392-0.585-3.589l29.522,8.54
		C193.035,239.045,186.847,248.004,187.524,256.277z M112.197,242.765l-25.056-7.189c3.024-3.679,6.698-5.768,10.426-5.768
		C103.449,229.807,108.97,234.94,112.197,242.765z M33.355,195.804c-0.469-3.705-1.035-7.072-1.573-9.882l17.854,5.165
		C45.152,194.317,38.326,195.501,33.355,195.804z M10.534,229.681c-0.252-0.073-0.42-0.236-0.498-0.486
		c-0.078-0.25-0.033-0.48,0.133-0.684l14.233-17.43c0.021,4.073-0.227,8.163-0.893,12.002c-0.44,2.539,1.13,4.94,3.552,5.635
		l-0.006,0.021l322.383,92.619c3.886,1.116,7.976-0.948,9.387-4.737l3.877-10.417l5.842,26.589L10.534,229.681z M350.317,311.087
		l-10.662-3.059c0.629-1.687,0.831-3.291,0.831-4.64c0-3.756,3.473-6.6,10.323-8.452c1.954-0.529,3.931-0.896,5.733-1.152
		L350.317,311.087z M357.725,283.55c-6.55,0.676-16.619,2.658-22.479,8.5c-3.113,3.104-4.759,7.024-4.759,11.337
		c0,0.352-0.008,1.009-0.574,1.845l-71.089-20.397l0.771-0.422c7.057-3.862,12.203-10.558,14.118-18.37l2.323-9.468l35.476,10.262
		l-23.113,14.88c-2.321,1.495-2.992,4.589-1.497,6.911c0.956,1.485,2.565,2.294,4.209,2.294c0.927,0,1.864-0.257,2.702-0.796
		l30.446-19.601l32.681,9.453L357.725,283.55z M20.384,172.215c38.986-58.869,98.093-99.797,167.134-115.553
		c20.111-4.59,40.664-6.917,61.087-6.917c11.38,0,22.872,0.727,34.163,2.161l0.296,0.038c16.38,2.135,29.906,13.835,34.461,29.806
		l54.837,192.281L20.384,172.215z"/>
	<path d="M197.936,113.568c-10.933,0-20.401,7.396-23.027,17.987c-0.664,2.68,0.97,5.392,3.65,6.056
		c2.681,0.664,5.392-0.969,6.057-3.65c1.517-6.119,6.994-10.393,13.32-10.393s11.804,4.274,13.32,10.393
		c0.564,2.276,2.605,3.798,4.85,3.798c0.398,0,0.803-0.048,1.207-0.148c2.681-0.665,4.314-3.376,3.65-6.056
		C218.337,120.965,208.868,113.568,197.936,113.568z"/>
	<path d="M267.395,205.54c-8.573,0-15.999,5.801-18.059,14.107c-0.665,2.68,0.969,5.392,3.649,6.057
		c0.404,0.1,0.809,0.148,1.207,0.148c2.244,0,4.285-1.521,4.849-3.797c0.951-3.836,4.387-6.515,8.354-6.515
		c3.968,0,7.402,2.679,8.353,6.514c0.664,2.681,3.374,4.313,6.057,3.65c2.68-0.664,4.314-3.375,3.65-6.056
		C283.396,211.342,275.969,205.54,267.395,205.54z"/>
	<path d="M91.02,139.769c-10.195,0-19.025,6.898-21.475,16.774c-0.665,2.68,0.969,5.392,3.649,6.057
		c2.673,0.663,5.391-0.969,6.056-3.649c1.341-5.406,6.181-9.181,11.77-9.181s10.428,3.775,11.768,9.181
		c0.564,2.276,2.605,3.798,4.85,3.798c0.398,0,0.803-0.048,1.207-0.148c2.68-0.664,4.314-3.375,3.65-6.056
		C110.046,146.667,101.215,139.769,91.02,139.769z"/>
	<path d="M259.84,88.909c2.365,1.426,5.438,0.664,6.863-1.701c1.426-2.365,0.664-5.438-1.701-6.863
		c-8.948-5.393-20.368-3.99-27.77,3.413c-1.953,1.953-1.953,5.119,0,7.071c0.976,0.976,2.256,1.464,3.535,1.464
		s2.56-0.488,3.535-1.464C248.449,86.683,254.839,85.896,259.84,88.909z"/>
	<path d="M314.002,160.304c-11.09-6.683-25.242-4.944-34.416,4.23c-1.953,1.953-1.953,5.119,0,7.071
		c0.976,0.976,2.256,1.464,3.535,1.464s2.56-0.488,3.535-1.464c5.918-5.917,15.041-7.042,22.184-2.737
		c2.365,1.426,5.438,0.664,6.863-1.701C317.129,164.802,316.367,161.729,314.002,160.304z"/>
</g>
<g>
</g>
<g>
</g>
<g>
</g>
<g>
</g>
<g>
</g>
<g>
</g>
<g>
</g>
<g>
</g>
<g>
</g>
<g>
</g>
<g>
</g>
<g>
</g>
<g>
</g>
<g>
</g>
<g>
</g>
</svg>
