<svg id="Layer_1" enable-background="new 0 0 512 512" height="512" fill="#fff" viewBox="0 0 512 512" width="512" xmlns="http://www.w3.org/2000/svg"><g><g><path d="m416 60c5.523 0 10-4.478 10-10v-40c0-5.522-4.477-10-10-10h-108.5c-11.275 0-21.756 6.479-26.815 16.542l-66.659 115.457h-98.026c-16.542 0-30 13.458-30 30v20c0 13.252 8.64 24.516 20.58 28.476l19.446 272.237c1.192 16.697 14.079 29.288 29.974 29.288h200c15.896 0 28.782-12.591 29.975-29.287l19.446-272.237c11.94-3.96 20.58-15.225 20.58-28.476v-20c0-16.542-13.458-30-30-30h-112.803l41.568-72zm-43.385 329.023c-40.366 17.586-61.35 10.563-85.522 2.47-31.765-10.636-67.563-22.612-146.116 19.839l-7.257-101.592c83.062-49.407 115.57-38.527 147.024-27.999 25.779 8.629 52.361 17.518 99.752-3.063zm-16.615 102.977h-200c-6.015 0-9.654-5.52-10.025-10.713l-3.426-47.964c76.588-43.483 107.901-33.006 138.195-22.865 23.995 8.034 48.733 16.304 90.285.773l-5.004 70.056c-.371 5.193-4.011 10.713-10.025 10.713zm50-330.001v20c0 5.514-4.486 10-10 10h-151.373c-5.523 0-10 4.478-10 10s4.477 10 10 10h140.633l-3.133 43.868c-46.647 23.086-69.124 15.581-95.033 6.909-32.973-11.036-70.145-23.476-154.958 24.752l-5.395-75.529h27.888c5.523 0 10-4.478 10-10s-4.477-10-10-10h-38.629c-5.514 0-10-4.486-10-10v-20c0-5.514 4.486-10 10-10h280c5.514 0 10 4.486 10 10zm-95.667-116.999-50.228 86.999h-22.985l61.044-105.732c.119-.205.229-.414.333-.627 1.691-3.479 5.141-5.64 9.003-5.64h98.5v20h-87.007c-3.573 0-6.874 1.906-8.66 5z"/><path d="m175.556 307.396h-.007c-5.523 0-9.997 4.478-9.997 10s4.481 10 10.004 10 10-4.478 10-10-4.477-10-10-10z"/><path d="m263.156 331.397h-.007c-5.523 0-9.997 4.478-9.997 10s4.481 10 10.004 10 10-4.478 10-10-4.477-10-10-10z"/><path d="m230.756 436.997h-.007c-5.523 0-9.997 4.478-9.997 10s4.481 10 10.004 10 10-4.478 10-10-4.477-10-10-10z"/><path d="m329.156 442.997h-.007c-5.523 0-9.997 4.478-9.997 10s4.481 10 10.004 10 10-4.478 10-10-4.477-10-10-10z"/><path d="m345.957 328.597c5.523 0 10-4.478 10-10s-4.477-10-10-10h-.007c-5.523 0-9.997 4.478-9.997 10s4.481 10 10.004 10z"/><path d="m199.631 211.999c5.523 0 10-4.478 10-10s-4.477-10-10-10h-.007c-5.523 0-9.996 4.478-9.996 10s4.48 10 10.003 10z"/></g></g></svg>